<svg xmlns="http://www.w3.org/2000/svg" width="17.32" height="17.688" viewBox="0 0 17.32 17.688">
  <defs>
    <style>
      .cls-1 {
        fill: #fcfcfc;
        fill-rule: evenodd;
      }
    </style>
  </defs>
  <path id="Cart_Icon" data-name="Cart Icon" class="cls-1" d="M1443.35,626.763a1.783,1.783,0,1,0,1.78,1.783A1.783,1.783,0,0,0,1443.35,626.763Zm0,2.343a0.561,0.561,0,1,1,.56-0.56A0.56,0.56,0,0,1,1443.35,629.106Zm7.12-2.343a1.783,1.783,0,1,0,1.78,1.783A1.783,1.783,0,0,0,1450.47,626.763Zm0,2.343a0.561,0.561,0,1,1,.56-0.56A0.56,0.56,0,0,1,1450.47,629.106Zm4.2-15.989a1.684,1.684,0,0,0-.85-0.408c-0.02,0-.05-0.006-0.07-0.01a2.166,2.166,0,0,0-.3-0.024h-4.64c-0.04,0-.07,0-0.11,0h-10.25a0.612,0.612,0,1,0,0,1.223h1.3v0h0.05a2.161,2.161,0,0,0-.21.917v9.426a2.141,2.141,0,0,0,2.14,2.138h11.11a0.612,0.612,0,0,0,0-1.223h-11.11a0.92,0.92,0,0,1-.91-0.916v-1.409a2.1,2.1,0,0,0,.86.186h8.56a2.894,2.894,0,0,0,2.61-1.851l1.52-4.3,0.68-1.933a2.138,2.138,0,0,0,.11-0.655A1.531,1.531,0,0,0,1454.67,613.117Zm-0.77,1.411-2.2,6.233a1.725,1.725,0,0,1-1.46,1.034h-8.56a0.915,0.915,0,0,1-.86-0.633v-6.347a0.921,0.921,0,0,1,.91-0.917h11.73a0.791,0.791,0,0,1,.16.017,0.454,0.454,0,0,1,.05.012l0.05,0.016a0.475,0.475,0,0,1,.12.072,0.326,0.326,0,0,1,.1.261A0.885,0.885,0,0,1,1453.9,614.528Z" transform="translate(-1437.84 -612.656)"/>
</svg>
