<svg xmlns="http://www.w3.org/2000/svg" width="17.88" height="17.82" viewBox="0 0 17.88 17.82">
  <defs>
    <style>
      .cls-1 {
        fill: #fff;
        fill-rule: evenodd;
      }
    </style>
  </defs>
  <path id="Dribble" class="cls-1" d="M1338.74,4413.53a9.165,9.165,0,0,0-1.92-2.83,9.213,9.213,0,0,0-1.32-1.09,9.677,9.677,0,0,0-1.52-.82,9.894,9.894,0,0,0-1.68-.52,9.09,9.09,0,0,0-3.6,0,9.894,9.894,0,0,0-1.68.52,9.677,9.677,0,0,0-1.52.82,9.213,9.213,0,0,0-1.32,1.09,9.165,9.165,0,0,0-1.92,2.83,9.068,9.068,0,0,0-.52,1.68,8.99,8.99,0,0,0,0,3.58,9.068,9.068,0,0,0,.52,1.68,9.277,9.277,0,0,0,.83,1.51,9.1,9.1,0,0,0,1.09,1.32,8.528,8.528,0,0,0,1.32,1.08,8.969,8.969,0,0,0,1.52.83,8.972,8.972,0,0,0,6.96,0,8.969,8.969,0,0,0,1.52-.83,8.528,8.528,0,0,0,1.32-1.08,9.1,9.1,0,0,0,1.09-1.32,9.277,9.277,0,0,0,.83-1.51,9.894,9.894,0,0,0,.52-1.68,8.99,8.99,0,0,0,0-3.58A9.894,9.894,0,0,0,1338.74,4413.53Zm-8.24-4.14a7.613,7.613,0,0,1,5.04,1.9,8.287,8.287,0,0,1-3.99,2.76,37.317,37.317,0,0,0-2.85-4.44A7.648,7.648,0,0,1,1330.5,4409.39Zm-1.83.22v0.01h-0.02A0.031,0.031,0,0,0,1328.67,4409.61Zm-1.43.51a47.943,47.943,0,0,1,2.84,4.38,28.073,28.073,0,0,1-7.05.93A7.605,7.605,0,0,1,1327.24,4410.12Zm-2.42,11.96h0Zm0,0a7.55,7.55,0,0,1-1.96-5.08c0-.08.01-0.16,0.01-0.24a28,28,0,0,0,7.84-1.09c0.22,0.43.43,0.87,0.62,1.3l-0.3.09A12.082,12.082,0,0,0,1324.82,4422.08Zm0.99,0.92s-0.07-.06-0.17-0.14c0.05,0.05.12,0.08,0.17,0.13V4423Zm4.69,1.61a7.674,7.674,0,0,1-4.69-1.62,10.368,10.368,0,0,1,5.99-4.75c0.02,0,.03-0.01.05-0.01a31.7,31.7,0,0,1,1.63,5.77A7.558,7.558,0,0,1,1330.5,4424.61Zm4.26-1.3a31.772,31.772,0,0,0-1.48-5.43,11.023,11.023,0,0,1,4.76.33A7.588,7.588,0,0,1,1334.76,4423.31Zm-1.94-6.64c-0.06-.13-0.11-0.26-0.17-0.39-0.16-.37-0.33-0.74-0.51-1.1a9.915,9.915,0,0,0,4.26-3.01,7.552,7.552,0,0,1,1.73,4.75A18.149,18.149,0,0,0,1332.82,4416.67Zm-4.15-7.06a0.031,0.031,0,0,1-.02.01h0.02v-0.01Zm-2.86,13.39v-0.01c-0.05-.05-0.12-0.08-0.17-0.13C1325.74,4422.94,1325.81,4423,1325.81,4423Z" transform="translate(-1321.56 -4408.09)"/>
</svg>
