<svg xmlns="http://www.w3.org/2000/svg" width="17.88" height="17.82" viewBox="0 0 17.88 17.82">
  <defs>
    <style>
      .cls-1 {
        fill: #fff;
        fill-rule: evenodd;
      }
    </style>
  </defs>
  <path id="Google" class="cls-1" d="M1289.93,4409.09h-5.27c-2.67,0-4.9,1.97-4.9,4.13a3.775,3.775,0,0,0,3.98,3.97c0.17,0,.34-0.01.51-0.02a2.257,2.257,0,0,0-.28,1.02,1.849,1.849,0,0,0,.76,1.37c-0.32,0-.62.01-0.96,0.01-3.06,0-5.2,2.1-5.2,4.11,0,1.99,2.58,3.23,5.64,3.23,3.49,0,5.64-1.98,5.64-3.96,0-1.59-.35-2.39-2.05-3.66-0.49-.37-1.55-1.12-1.55-1.62,0-.59.17-0.88,1.06-1.57a3.585,3.585,0,0,0,1.56-2.81,3.319,3.319,0,0,0-1.5-2.97h1.38Zm-1.79,13.52a2.1,2.1,0,0,1,.07.56c0,1.6-1.03,2.86-4.01,2.86-2.12,0-3.65-1.34-3.65-2.94,0-1.57,1.8-2.93,3.91-2.9a4.339,4.339,0,0,1,1.38.22C1286.99,4421.2,1287.91,4421.7,1288.14,4422.61Zm-3.38-6.23a3.439,3.439,0,0,1-3.02-3.2c-0.25-1.85.71-3.28,2.13-3.23s2.63,1.56,2.88,3.42S1286.18,4416.42,1284.76,4416.38Zm9.24-4.62v-2.43h-1.21v2.43h-2.43v1.21h2.43v2.42H1294v-2.42h2.43v-1.21H1294Z" transform="translate(-1278.56 -4409.09)"/>
</svg>
