<svg xmlns="http://www.w3.org/2000/svg" width="11.06" height="11.062" viewBox="0 0 11.06 11.062">
  <defs>
    <style>
      .cls-1 {
        fill: #fff;
        fill-rule: evenodd;
      }

    </style>
  </defs>
  <path id="Google" class="cls-1" d="M1392.51,10.972h-3.27a2.9,2.9,0,0,0-3.04,2.561,2.344,2.344,0,0,0,2.47,2.462c0.1,0,.21,0,0.31-0.012a1.4,1.4,0,0,0-.17.634,1.142,1.142,0,0,0,.47.851c-0.2,0-.39,0-0.59,0-1.9,0-3.23,1.3-3.23,2.554,0,1.23,1.6,2,3.5,2,2.17,0,3.5-1.224,3.5-2.457a2.4,2.4,0,0,0-1.27-2.273,2.309,2.309,0,0,1-.96-1,1.115,1.115,0,0,1,.65-0.973,2.208,2.208,0,0,0,.97-1.742,2.047,2.047,0,0,0-.93-1.842h0.86Zm-1.11,8.389a1.357,1.357,0,0,1,.04.35c0,1-.64,1.771-2.49,1.771a2.045,2.045,0,0,1-2.26-1.822c0-.976,1.11-1.817,2.43-1.8a2.877,2.877,0,0,1,.85.136A2.962,2.962,0,0,1,1391.4,19.361Zm-2.1-3.862a2.137,2.137,0,0,1-1.87-1.986c-0.16-1.154.44-2.037,1.32-2.011a2.24,2.24,0,0,1,1.79,2.128C1390.69,14.781,1390.18,15.524,1389.3,15.5Zm5.74-2.872v-1.5h-0.76v1.5h-1.51v0.75h1.51v1.5h0.76v-1.5h1.5v-0.75h-1.5Z" transform="translate(-1385.47 -10.969)"/>
</svg>
