<svg xmlns="http://www.w3.org/2000/svg" width="20.37" height="16.875" viewBox="0 0 20.37 16.875">
  <defs>
    <style>
      .cls-1 {
        fill: #fcfcfc;
        fill-rule: evenodd;
      }
    </style>
  </defs>
  <path id="Search_Icon" data-name="Search Icon" class="cls-1" d="M1384.98,619.02a6.412,6.412,0,0,0,11.51,3.893l1.71,1.258a2.156,2.156,0,0,0,.67,2.608l2.89,2.229a2.182,2.182,0,0,0,1.34.454,2.21,2.21,0,0,0,1.74-.853l0.06-.078a2.214,2.214,0,0,0,.45-1.334v0a2.184,2.184,0,0,0-.85-1.735l-2.9-2.23a2.191,2.191,0,0,0-2.62-.036l-1.83-1.346A6.414,6.414,0,1,0,1384.98,619.02Zm15.86,5.2,2.89,2.229h0a0.94,0.94,0,0,1,.37.748,0.876,0.876,0,0,1-.2.569l-0.06.079a0.932,0.932,0,0,1-.74.365,0.919,0.919,0,0,1-.57-0.193l-2.9-2.23a0.953,0.953,0,0,1-.17-1.317l0.06-.079A0.95,0.95,0,0,1,1400.84,624.22Zm-4.28-5.2a5.165,5.165,0,1,1-5.16-5.166A5.166,5.166,0,0,1,1396.56,619.02Z" transform="translate(-1384.97 -612.594)"/>
</svg>
