<svg xmlns="http://www.w3.org/2000/svg" width="17.88" height="14.5" viewBox="0 0 17.88 14.5">
  <defs>
    <style>
      .cls-1 {
        fill: #fff;
        fill-rule: evenodd;
      }
    </style>
  </defs>
  <path id="Twitter" class="cls-1" d="M1230.06,4422.6a10.454,10.454,0,0,0,5.62,1.64,10.347,10.347,0,0,0,10.44-10.4c0-.16,0-0.32-0.01-0.47a7.348,7.348,0,0,0,1.83-1.9,7.094,7.094,0,0,1-2.11.58,3.7,3.7,0,0,0,1.62-2.02,7.293,7.293,0,0,1-2.33.88,3.678,3.678,0,0,0-6.35,2.51,3.309,3.309,0,0,0,.1.83,10.4,10.4,0,0,1-7.56-3.82,3.6,3.6,0,0,0-.5,1.84,3.672,3.672,0,0,0,1.63,3.04,3.585,3.585,0,0,1-1.66-.46v0.05a3.648,3.648,0,0,0,2.94,3.58,3.443,3.443,0,0,1-.97.13,3.232,3.232,0,0,1-.69-0.07,3.675,3.675,0,0,0,3.43,2.54,7.4,7.4,0,0,1-4.56,1.57A8.457,8.457,0,0,1,1230.06,4422.6Z" transform="translate(-1230.06 -4409.75)"/>
</svg>
