<svg xmlns="http://www.w3.org/2000/svg" width="11.1" height="9" viewBox="0 0 11.1 9">
  <defs>
    <style>
      .cls-1 {
        fill: #fff;
        fill-rule: evenodd;
      }
    </style>
  </defs>
  <path id="Twitter" class="cls-1" d="M1349.59,19a6.483,6.483,0,0,0,9.97-5.436c0-.1-0.01-0.2-0.01-0.293a4.619,4.619,0,0,0,1.14-1.174,4.49,4.49,0,0,1-1.31.356,2.268,2.268,0,0,0,1-1.253,4.613,4.613,0,0,1-1.45.55A2.274,2.274,0,0,0,1355,13.3a2.91,2.91,0,0,0,.05.517,6.464,6.464,0,0,1-4.69-2.369,2.315,2.315,0,0,0-.31,1.14,2.273,2.273,0,0,0,1.02,1.888,2.279,2.279,0,0,1-1.04-.283V14.22a2.276,2.276,0,0,0,1.83,2.225,2.215,2.215,0,0,1-.6.079,2.281,2.281,0,0,1-.43-0.04,2.275,2.275,0,0,0,2.13,1.575,4.583,4.583,0,0,1-2.83.97A4.676,4.676,0,0,1,1349.59,19Z" transform="translate(-1349.59 -11.031)"/>
</svg>
